#!OML:ASF G:\JayActor3\Patient Classification 1\Patient 1\Session 2\male.ASF
:FULLY-SPECIFIED
:DEGREES
1560
root 42.9142 16.409 -7.10143 1480.33 -273.461 -1032.23
lowerback -1.0268 -0.868104 -4.40904
upperback 2.82387 -0.898993 -2.4517
thorax 3.51962 -0.506801 -0.093263
lowerneck -9.12329 -1.83222 -2.21847
upperneck 22.7627 -3.10455 6.02187
head 8.71817 -0.867856 2.12378
rclavicle -7.20594e-015 -2.06736e-014
rhumerus -46.5298 30.9463 -98.7735
rradius 63.282
rwrist 1.35559
rhand -38.2088 11.068
rfingers 7.12502
rthumb -11.2407 -18.6108
lclavicle -7.20594e-015 -2.06736e-014
lhumerus -31.2138 -53.3467 94.2618
lradius 85.884
lwrist 7.33243
lhand -20.3406 8.02892
lfingers 7.12502
lthumb 6.01102 37.9236
rfemur -21.5118 11.796 16.4015
rtibia 37.7471
rfoot -9.64482 -6.47638
rtoes 15.4962
lfemur -9.13416 9.34135 -26.5852
ltibia 30.2323
lfoot -9.1731 3.63667
ltoes -0.512211
1561
root 43.0174 16.4251 -7.10129 1482.11 -273.451 -1030.39
lowerback -1.0248 -0.856676 -4.44481
upperback 2.83841 -0.882112 -2.44302
thorax 3.53393 -0.499731 -0.0638545
lowerneck -9.07281 -1.88244 -2.26767
upperneck 22.4134 -3.18445 6.12217
head 8.59566 -0.911233 2.15264
rclavicle 1.05356e-014 3.97569e-015
rhumerus -46.3275 30.3266 -98.4
rradius 62.7667
rwrist 1.62647
rhand -38.3227 11.1546
rfingers 7.12502
rthumb -11.3505 -18.5182
lclavicle 1.05356e-014 3.97569e-015
lhumerus -31.4751 -53.2987 94.5346
lradius 85.7407
lwrist 7.00749
lhand -20.5925 7.73316
lfingers 7.12502
lthumb 5.76775 37.6347
rfemur -21.1429 11.827 16.4086
rtibia 37.8099
rfoot -9.24524 -6.80986
rtoes 16.2983
lfemur -8.45993 9.26307 -26.6107
ltibia 29.8966
lfoot -9.29224 3.63511
ltoes -0.902715
1562
root 43.1177 16.4411 -7.10173 1483.6 -273.41 -1028.89
lowerback -1.0791 -0.857873 -4.43945
upperback 2.84072 -0.881626 -2.41849
thorax 3.56729 -0.500512 -0.0424932
lowerneck -9.03044 -1.92987 -2.29968
upperneck 22.0643 -3.25593 6.19039
head 8.47425 -0.952629 2.16861
rclavicle 1.76421e-015 3.97569e-015
rhumerus -46.0683 29.7209 -98.0263
rradius 62.1971
rwrist 1.97067
rhand -38.4538 11.275
rfingers 7.12502
rthumb -11.4769 -18.3908
lclavicle 1.76421e-015 3.97569e-015
lhumerus -31.7938 -53.132 94.8598
lradius 85.4408
lwrist 6.71775
lhand -20.8714 7.46757
lfingers 7.12502
lthumb 5.49853 37.3762
rfemur -20.8329 11.8124 16.445
rtibia 37.8748
rfoot -9.09159 -7.01783
rtoes 16.5359
lfemur -7.90583 9.16775 -26.6077
ltibia 29.6248
lfoot -9.42329 3.6226
ltoes -1.24613
1563
root 43.2152 16.4564 -7.1024 1485.1 -273.327 -1027.48
lowerback -1.21326 -0.876952 -4.40308
upperback 2.82929 -0.903116 -2.3751
thorax 3.63193 -0.512438 -0.0210964
lowerneck -8.99609 -1.97871 -2.32633
upperneck 21.7082 -3.32567 6.23943
head 8.3521 -0.995045 2.17736
rclavicle -7.1314e-015 6.36111e-015
rhumerus -45.771 29.1264 -97.6513
rradius 61.6035
rwrist 2.35301
rhand -38.5884 11.4319
rfingers 7.12502
rthumb -11.6067 -18.2266
lclavicle -7.1314e-015 6.36111e-015
lhumerus -32.1427 -52.8606 95.2256
lradius 84.9698
lwrist 6.49575
lhand -21.1488 7.23615
lfingers 7.12502
lthumb 5.23064 37.1516
rfemur -20.5806 11.7674 16.5053
rtibia 37.9415
rfoot -9.13069 -7.16965
rtoes 16.3607
lfemur -7.49203 9.05735 -26.5772
ltibia 29.4188
lfoot -9.54901 3.58337
ltoes -1.59647
1564
root 43.3103 16.4715 -7.10321 1486.84 -273.204 -1025.92
lowerback -1.44973 -0.913372 -4.35072
upperback 2.80491 -0.944119 -2.31322
thorax 3.74169 -0.534838 0.00782509
lowerneck -8.96531 -2.03078 -2.34834
upperneck 21.3358 -3.39686 6.27374
head 8.22552 -1.03986 2.18016
rclavicle -6.03808e-015 7.95139e-016
rhumerus -45.4531 28.5418 -97.2742
rradius 61.0175
rwrist 2.72553
rhand -38.7155 11.6065
rfingers 7.12502
rthumb -11.7294 -18.0451
lclavicle -6.03808e-015 7.95139e-016
lhumerus -32.4989 -52.4977 95.6206
lradius 84.3238
lwrist 6.35575
lhand -21.4148 7.06246
lfingers 7.12502
lthumb 4.97379 36.9841
rfemur -20.3979 11.706 16.5735
rtibia 37.9994
rfoot -9.34833 -7.27987
rtoes 15.8755
lfemur -7.22385 8.93222 -26.5306
ltibia 29.2655
lfoot -9.66705 3.51364
ltoes -1.94817
1565
root 43.4034 16.4874 -7.10385 1489.04 -273.041 -1023.99
lowerback -1.78971 -0.965465 -4.28973
upperback 2.769 -1.00226 -2.23365
thorax 3.89888 -0.566659 0.0472633
lowerneck -8.92392 -2.08819 -2.37441
upperneck 20.932 -3.47297 6.30574
head 8.08742 -1.08873 2.18229
rclavicle 5.71506e-016 2.5842e-014
rhumerus -45.1351 27.9568 -96.8957
rradius 60.4689
rwrist 3.04783
rhand -38.7812 11.7719
rfingers 7.12502
rthumb -11.7927 -17.8761
lclavicle 5.71506e-016 2.5842e-014
lhumerus -32.8549 -52.0658 96.0423
lradius 83.5054
lwrist 6.29423
lhand -21.6481 6.95982
lfingers 7.12502
lthumb 4.74856 36.8866
rfemur -20.2835 11.6462 16.6446
rtibia 38.031
rfoot -9.64372 -7.40771
rtoes 15.3421
lfemur -7.08126 8.78957 -26.4686
ltibia 29.1407
lfoot -9.77939 3.41355
ltoes -2.27484
1566
root 43.4953 16.5044 -7.10425 1491.72 -272.843 -1021.65
lowerback -2.21177 -1.02554 -4.21521
upperback 2.72552 -1.06876 -2.13914
thorax 4.09518 -0.603092 0.0920267
lowerneck -8.90141 -2.16127 -2.39478
upperneck 20.5284 -3.56781 6.31968
head 7.95409 -1.14766 2.17581
rclavicle -1.963e-015 5.1684e-015
rhumerus -44.8337 27.363 -96.5222
rradius 59.9747
rwrist 3.29185
rhand -38.7886 11.9112
rfingers 7.12502
rthumb -11.7998 -17.7364
lclavicle -1.963e-015 5.1684e-015
lhumerus -33.2065 -51.5877 96.4871
lradius 82.5238
lwrist 6.32211
lhand -21.8428 6.93665
lfingers 7.12502
lthumb 4.56054 36.8676
rfemur -20.219 11.6066 16.7249
rtibia 38.0192
rfoot -9.96855 -7.54983
rtoes 14.9565
lfemur -7.02458 8.63166 -26.3867
ltibia 29.0211
lfoot -9.88968 3.29749
ltoes -2.5548
1567
root 43.5867 16.5227 -7.10465 1494.91 -272.616 -1018.83
lowerback -2.68172 -1.08866 -4.11961
upperback 2.67795 -1.13941 -2.03391
thorax 4.31449 -0.641378 0.134149
lowerneck -8.87061 -2.2418 -2.4245
upperneck 20.1078 -3.67259 6.34582
head 7.81517 -1.21144 2.17428
rclavicle 2.68359e-015 2.14687e-014
rhumerus -44.5634 26.7584 -96.1626
rradius 59.5423
rwrist 3.44469
rhand -38.7371 12.0175
rfingers 7.12502
rthumb -11.7501 -17.633
lclavicle 2.68359e-015 2.14687e-014
lhumerus -33.5498 -51.0764 96.946
lradius 81.3861
lwrist 6.41005
lhand -21.9673 6.99188
lfingers 7.12502
lthumb 4.44038 36.9253
rfemur -20.1736 11.5887 16.8203
rtibia 37.9573
rfoot -10.2971 -7.70276
rtoes 14.7349
lfemur -7.0083 8.45633 -26.2821
ltibia 28.891
lfoot -10.0039 3.18169
ltoes -2.75166
1568
root 43.6774 16.5413 -7.1052 1498.61 -272.361 -1015.51
lowerback -3.1535 -1.14904 -3.9906
upperback 2.62544 -1.2101 -1.92108
thorax 4.52924 -0.678514 0.164662
lowerneck -8.86797 -2.33986 -2.43726
upperneck 19.7153 -3.79986 6.34727
head 7.69169 -1.28579 2.16008
rclavicle -7.87684e-015 -9.54166e-015
rhumerus -44.3397 26.1386 -95.825
rradius 59.1712
rwrist 3.52146
rhand -38.6639 12.0756
rfingers 7.12502
rthumb -11.6795 -17.5788
lclavicle -7.87684e-015 -9.54166e-015
lhumerus -33.9 -50.5519 97.4291
lradius 80.1019
lwrist 6.56612
lhand -22.0477 7.12562
lfingers 7.12502
lthumb 4.36271 37.0607
rfemur -20.1163 11.5821 16.9449
rtibia 37.8509
rfoot -10.618 -7.85327
rtoes 14.6549
lfemur -6.99565 8.26897 -26.1465
ltibia 28.7467
lfoot -10.1254 3.07531
ltoes -2.83938
